{"accessors":[{"name":"g_01_1_positions","componentType":5126,"count":596,"min":[-2.6618289947509766,0.001841509947553277,-6.579700946807861],"max":[2.661832094192505,2.519901990890503,-3.4202990531921387],"type":"VEC3","bufferView":0,"byteOffset":0},{"name":"g_01_1_normals","componentType":5126,"count":596,"min":[-1,-1,-1],"max":[1,1,1],"type":"VEC3","bufferView":0,"byteOffset":7152},{"name":"g_01_1_texcoords","componentType":5126,"count":596,"min":[0.017704859375953674,0.02895119972527027],"max":[0.9740375876426697,0.9808615446090698],"type":"VEC2","bufferView":1,"byteOffset":0},{"name":"g_01_1_0_indices","componentType":5123,"count":1200,"min":[0],"max":[595],"type":"SCALAR","bufferView":2,"byteOffset":0}],"asset":{"generator":"obj2gltf","version":"2.0"},"buffers":[{"name":"car_mesh","byteLength":31452,"uri":"data:application/octet-stream;base64,"}],"bufferViews":[{"name":"bufferView_0","buffer":0,"byteLength":14304,"byteOffset":0,"byteStride":12,"target":34962},{"name":"bufferView_1","buffer":0,"byteLength":4768,"byteOffset":14304,"byteStride":8,"target":34962},{"name":"bufferView_2","buffer":0,"byteLength":2400,"byteOffset":19072,"target":34963},{"buffer":0,"byteOffset":21472,"byteLength":9980}],"images":[{"name":"Vehicle_Car01_a","mimeType":"image/png","bufferView":3}],"materials":[{"name":"Vehicle_Car01_Blue","pbrMetallicRoughness":{"baseColorTexture":{"index":0},"baseColorFactor":[1,1,1,1],"metallicFactor":0,"roughnessFactor":1},"emissiveFactor":[0,0,0],"alphaMode":"OPAQUE","doubleSided":false}],"meshes":[{"name":"g_01_1","primitives":[{"attributes":{"POSITION":0,"NORMAL":1,"TEXCOORD_0":2},"indices":3,"material":0,"mode":4}]}],"nodes":[{"name":"g_01","mesh":0}],"samplers":[{"magFilter":9729,"minFilter":9986,"wrapS":10497,"wrapT":10497}],"scene":0,"scenes":[{"nodes":[0]}],"textures":[{"name":"Vehicle_Car01_a","sampler":0,"source":0}]}
