mtllib bush_large_mesh.mtl
g bush_large_mesh
v 9.588216 0.5144875 -13.83726
v 9.588216 0.5144875 -13.16771
v 8.855145 0.5144875 -13.16771
v 8.855145 0.5144875 -13.83726
v 8.855145 -0.00663662 -13.16771
v 9.588216 -0.00663662 -13.16771
v 9.588216 -0.00663662 -13.83726
v 8.855145 -0.00663662 -13.83726
v 9.588216 -0.00663662 -13.83726
v 9.588216 0.5144875 -13.83726
v 8.855145 0.5144875 -13.83726
v 8.855145 -0.00663662 -13.83726
v 8.855145 -0.00663662 -13.83726
v 8.855145 0.5144875 -13.83726
v 8.855145 0.5144875 -13.16771
v 8.855145 -0.00663662 -13.16771
v 8.855145 -0.00663662 -13.16771
v 8.855145 0.5144875 -13.16771
v 9.588216 0.5144875 -13.16771
v 9.588216 -0.00663662 -13.16771
v 9.588216 -0.00663662 -13.16771
v 9.588216 0.5144875 -13.16771
v 9.588216 0.5144875 -13.83726
v 9.588216 -0.00663662 -13.83726
v 8.330793 0.6498928 -13.46469
v 8.330793 0.6498928 -14.10811
v 8.939926 0.6498928 -14.10811
v 8.939926 0.6498928 -13.46469
v 8.939926 -0.007025242 -14.10811
v 8.330793 -0.007025242 -14.10811
v 8.330793 -0.007025242 -13.46469
v 8.939926 -0.007025242 -13.46469
v 8.330793 -0.007025242 -13.46469
v 8.330793 0.6498928 -13.46469
v 8.939926 0.6498928 -13.46469
v 8.939926 -0.007025242 -13.46469
v 8.939926 -0.007025242 -13.46469
v 8.939926 0.6498928 -13.46469
v 8.939926 0.6498928 -14.10811
v 8.939926 -0.007025242 -14.10811
v 8.939926 -0.007025242 -14.10811
v 8.939926 0.6498928 -14.10811
v 8.330793 0.6498928 -14.10811
v 8.330793 -0.007025242 -14.10811
v 8.330793 -0.007025242 -14.10811
v 8.330793 0.6498928 -14.10811
v 8.330793 0.6498928 -13.46469
v 8.330793 -0.007025242 -13.46469
v 8.827263 0.6119237 -14.36227
v 8.827263 0.6119237 -15.01229
v 9.587936 0.6119237 -15.01229
v 9.587936 0.6119237 -14.36227
v 9.587936 -0.006918192 -15.01229
v 8.827263 -0.006918192 -15.01229
v 8.827263 -0.006918192 -14.36227
v 9.587936 -0.006918192 -14.36227
v 8.827263 -0.006918192 -14.36227
v 8.827263 0.6119237 -14.36227
v 9.587936 0.6119237 -14.36227
v 9.587936 -0.006918192 -14.36227
v 9.587936 -0.006918192 -14.36227
v 9.587936 0.6119237 -14.36227
v 9.587936 0.6119237 -15.01229
v 9.587936 -0.006918192 -15.01229
v 9.587936 -0.006918192 -15.01229
v 9.587936 0.6119237 -15.01229
v 8.827263 0.6119237 -15.01229
v 8.827263 -0.006918192 -15.01229
v 8.827263 -0.006918192 -15.01229
v 8.827263 0.6119237 -15.01229
v 8.827263 0.6119237 -14.36227
v 8.827263 -0.006918192 -14.36227
v 8.404055 0.5167942 -14.08774
v 8.404055 0.5167942 -14.77883
v 9.058327 0.5167942 -14.77883
v 9.058327 0.5167942 -14.08774
v 9.058327 -0.006588697 -14.77883
v 8.404055 -0.006588697 -14.77883
v 8.404055 -0.006588697 -14.08774
v 9.058327 -0.006588697 -14.08774
v 8.404055 -0.006588697 -14.08774
v 8.404055 0.5167942 -14.08774
v 9.058327 0.5167942 -14.08774
v 9.058327 -0.006588697 -14.08774
v 9.058327 -0.006588697 -14.08774
v 9.058327 0.5167942 -14.08774
v 9.058327 0.5167942 -14.77883
v 9.058327 -0.006588697 -14.77883
v 9.058327 -0.006588697 -14.77883
v 9.058327 0.5167942 -14.77883
v 8.404055 0.5167942 -14.77883
v 8.404055 -0.006588697 -14.77883
v 8.404055 -0.006588697 -14.77883
v 8.404055 0.5167942 -14.77883
v 8.404055 0.5167942 -14.08774
v 8.404055 -0.006588697 -14.08774
v 8.720823 1.0367 -13.81762
v 8.720823 1.0367 -14.46904
v 9.337524 1.0367 -14.46904
v 9.337524 1.0367 -13.81762
v 9.337524 -0.04129148 -14.46904
v 8.720823 -0.04129148 -14.46904
v 8.720823 -0.04129148 -13.81762
v 9.337524 -0.04129148 -13.81762
v 8.720823 -0.04129148 -13.81762
v 8.720823 1.0367 -13.81762
v 9.337524 1.0367 -13.81762
v 9.337524 -0.04129148 -13.81762
v 9.337524 -0.04129148 -13.81762
v 9.337524 1.0367 -13.81762
v 9.337524 1.0367 -14.46904
v 9.337524 -0.04129148 -14.46904
v 9.337524 -0.04129148 -14.46904
v 9.337524 1.0367 -14.46904
v 8.720823 1.0367 -14.46904
v 8.720823 -0.04129148 -14.46904
v 8.720823 -0.04129148 -14.46904
v 8.720823 1.0367 -14.46904
v 8.720823 1.0367 -13.81762
v 8.720823 -0.04129148 -13.81762
v 9.219183 0.5222831 -14.38427
v 9.869207 0.5222831 -14.38427
v 9.869207 0.5222831 -13.76889
v 9.219183 0.5222831 -13.76889
v 9.869207 -0.006703377 -13.76889
v 9.869207 -0.006703377 -14.38427
v 9.219183 -0.006703377 -14.38427
v 9.219183 -0.006703377 -13.76889
v 9.219183 -0.006703377 -14.38427
v 9.219183 0.5222831 -14.38427
v 9.219183 0.5222831 -13.76889
v 9.219183 -0.006703377 -13.76889
v 9.219183 -0.006703377 -13.76889
v 9.219183 0.5222831 -13.76889
v 9.869207 0.5222831 -13.76889
v 9.869207 -0.006703377 -13.76889
v 9.869207 -0.006703377 -13.76889
v 9.869207 0.5222831 -13.76889
v 9.869207 0.5222831 -14.38427
v 9.869207 -0.006703377 -14.38427
v 9.869207 -0.006703377 -14.38427
v 9.869207 0.5222831 -14.38427
v 9.219183 0.5222831 -14.38427
v 9.219183 -0.006703377 -14.38427

vn 0 1 0
vn 0 1 0
vn 0 1 0
vn 0 1 0
vn 0 -1 0
vn 0 -1 0
vn 0 -1 0
vn 0 -1 0
vn 0 0 -1
vn 0 0 -1
vn 0 0 -1
vn 0 0 -1
vn -1 0 0
vn -1 0 0
vn -1 0 0
vn -1 0 0
vn 0 0 1
vn 0 0 1
vn 0 0 1
vn 0 0 1
vn 1 0 0
vn 1 0 0
vn 1 0 0
vn 1 0 0
vn 0 1 0
vn 0 1 0
vn 0 1 0
vn 0 1 0
vn 0 -1 0
vn 0 -1 0
vn 0 -1 0
vn 0 -1 0
vn 0 0 1
vn 0 0 1
vn 0 0 1
vn 0 0 1
vn 1 0 0
vn 1 0 0
vn 1 0 0
vn 1 0 0
vn 0 0 -1
vn 0 0 -1
vn 0 0 -1
vn 0 0 -1
vn -1 0 0
vn -1 0 0
vn -1 0 0
vn -1 0 0
vn 0 1 0
vn 0 1 0
vn 0 1 0
vn 0 1 0
vn 0 -1 0
vn 0 -1 0
vn 0 -1 0
vn 0 -1 0
vn 0 0 1
vn 0 0 1
vn 0 0 1
vn 0 0 1
vn 1 0 0
vn 1 0 0
vn 1 0 0
vn 1 0 0
vn 0 0 -1
vn 0 0 -1
vn 0 0 -1
vn 0 0 -1
vn -1 0 0
vn -1 0 0
vn -1 0 0
vn -1 0 0
vn 0 1 0
vn 0 1 0
vn 0 1 0
vn 0 1 0
vn 0 -1 0
vn 0 -1 0
vn 0 -1 0
vn 0 -1 0
vn 0 0 1
vn 0 0 1
vn 0 0 1
vn 0 0 1
vn 1 0 0
vn 1 0 0
vn 1 0 0
vn 1 0 0
vn 0 0 -1
vn 0 0 -1
vn 0 0 -1
vn 0 0 -1
vn -1 0 0
vn -1 0 0
vn -1 0 0
vn -1 0 0
vn 0 1 0
vn 0 1 0
vn 0 1 0
vn 0 1 0
vn 0 -1 0
vn 0 -1 0
vn 0 -1 0
vn 0 -1 0
vn 0 0 1
vn 0 0 1
vn 0 0 1
vn 0 0 1
vn 1 0 0
vn 1 0 0
vn 1 0 0
vn 1 0 0
vn 0 0 -1
vn 0 0 -1
vn 0 0 -1
vn 0 0 -1
vn -1 0 0
vn -1 0 0
vn -1 0 0
vn -1 0 0
vn 0 1 0
vn 0 1 0
vn 0 1 0
vn 0 1 0
vn 0 -1 0
vn 0 -1 0
vn 0 -1 0
vn 0 -1 0
vn -1 0 0
vn -1 0 0
vn -1 0 0
vn -1 0 0
vn 0 0 1
vn 0 0 1
vn 0 0 1
vn 0 0 1
vn 1 0 0
vn 1 0 0
vn 1 0 0
vn 1 0 0
vn 0 0 -1
vn 0 0 -1
vn 0 0 -1
vn 0 0 -1

vt 0.05627855 0.7742525
vt 0.05627855 0.8992069
vt 0.1745744 0.8992069
vt 0.1745744 0.7742525
vt 0.938547 0.4718425
vt 0.8490316 0.4718425
vt 0.8490316 0.5663966
vt 0.938547 0.5663966
vt 0.8794158 0.4307446
vt 0.8794158 0.4840474
vt 0.9283001 0.4840474
vt 0.9283001 0.4307446
vt 0.479812 0.6035694
vt 0.479812 0.6146231
vt 0.4905199 0.6146231
vt 0.4905199 0.6035694
vt 0.3714529 0.5599564
vt 0.3714529 0.5195755
vt 0.3344193 0.5195755
vt 0.3344193 0.5599564
vt 0.1028907 0.532709
vt 0.1028907 0.5672596
vt 0.1363609 0.5672596
vt 0.1363609 0.532709
vt 0.05627855 0.7742525
vt 0.05627855 0.8992069
vt 0.1745744 0.8992069
vt 0.1745744 0.7742525
vt 0.8544065 0.4381201
vt 0.8435504 0.4381201
vt 0.8435504 0.4495872
vt 0.8544065 0.4495872
vt 0.09809735 0.4727179
vt 0.09809735 0.5130988
vt 0.135131 0.5130988
vt 0.135131 0.4727179
vt 0.2955256 0.4787385
vt 0.2955256 0.5191194
vt 0.3346438 0.5191194
vt 0.3346438 0.4787385
vt 0.5310013 0.547915
vt 0.5310013 0.5075341
vt 0.4939677 0.5075341
vt 0.4939677 0.547915
vt 0.3049585 0.614748
vt 0.3049585 0.6258016
vt 0.3156666 0.6258016
vt 0.3156666 0.614748
vt 0.05627855 0.7742525
vt 0.05627855 0.8992069
vt 0.1745744 0.8992069
vt 0.1745744 0.7742525
vt 0.938547 0.4718425
vt 0.8490316 0.4718425
vt 0.8490316 0.5663966
vt 0.938547 0.5663966
vt 0.8794158 0.4307446
vt 0.8794158 0.4840474
vt 0.9283001 0.4840474
vt 0.9283001 0.4307446
vt 0.8081037 0.8078339
vt 0.8081037 0.8423845
vt 0.8415738 0.8423845
vt 0.8415738 0.8078339
vt 0.1600264 0.4738685
vt 0.1600264 0.4040887
vt 0.09603089 0.4040887
vt 0.09603089 0.4738685
vt 0.4375091 0.3371423
vt 0.4375091 0.3904451
vt 0.489145 0.3904451
vt 0.489145 0.3371423
vt 0.05627855 0.7742525
vt 0.05627855 0.8992069
vt 0.1745744 0.8992069
vt 0.1745744 0.7742525
vt 0.938547 0.4718425
vt 0.8490316 0.4718425
vt 0.8490316 0.5663966
vt 0.938547 0.5663966
vt 0.2715036 0.3754332
vt 0.2715036 0.4552167
vt 0.3446737 0.4552167
vt 0.3446737 0.3754332
vt 0.8081037 0.8078339
vt 0.8081037 0.8423845
vt 0.8415738 0.8423845
vt 0.8415738 0.8078339
vt 0.1600264 0.4738685
vt 0.1600264 0.4040887
vt 0.09603089 0.4040887
vt 0.09603089 0.4738685
vt 0.335062 0.5394893
vt 0.335062 0.550543
vt 0.34577 0.550543
vt 0.34577 0.5394893
vt 0.05627855 0.7742525
vt 0.05627855 0.8992069
vt 0.1745744 0.8992069
vt 0.1745744 0.7742525
vt 0.6980504 0.4088993
vt 0.6572138 0.4088993
vt 0.6572138 0.6143253
vt 0.6980504 0.6143253
vt 0.2576457 0.4787385
vt 0.2576457 0.5191194
vt 0.2946793 0.5191194
vt 0.2946793 0.4787385
vt 0.8081037 0.8078339
vt 0.8081037 0.8423845
vt 0.8415738 0.8423845
vt 0.8415738 0.8078339
vt 0.1449746 0.6093341
vt 0.1449746 0.5395544
vt 0.08097914 0.5395544
vt 0.08097914 0.6093341
vt 0.2428632 0.4246562
vt 0.2428632 0.5158015
vt 0.3311583 0.5158015
vt 0.3311583 0.4246562
vt 0.05627855 0.7742525
vt 0.05627855 0.8992069
vt 0.1745744 0.8992069
vt 0.1745744 0.7742525
vt 0.938547 0.4718425
vt 0.8490316 0.4718425
vt 0.8490316 0.5663966
vt 0.938547 0.5663966
vt 0.8794158 0.4307446
vt 0.8794158 0.4840474
vt 0.9283001 0.4840474
vt 0.9283001 0.4307446
vt 0.2955256 0.4787385
vt 0.2955256 0.5191194
vt 0.3346438 0.5191194
vt 0.3346438 0.4787385
vt 0.8730684 0.8773253
vt 0.8730684 0.8427747
vt 0.8413818 0.8427747
vt 0.8413818 0.8773253
vt 0.3463186 0.4040887
vt 0.3463186 0.4738685
vt 0.4139163 0.4738685
vt 0.4139163 0.4040887

g g_01
usemtl Nature
f 2/2/2 1/1/1 3/3/3
f 3/3/3 1/1/1 4/4/4
f 6/6/6 5/5/5 7/7/7
f 7/7/7 5/5/5 8/8/8
f 10/10/10 9/9/9 11/11/11
f 11/11/11 9/9/9 12/12/12
f 14/14/14 13/13/13 15/15/15
f 15/15/15 13/13/13 16/16/16
f 18/18/18 17/17/17 19/19/19
f 19/19/19 17/17/17 20/20/20
f 22/22/22 21/21/21 23/23/23
f 23/23/23 21/21/21 24/24/24
f 26/26/26 25/25/25 27/27/27
f 27/27/27 25/25/25 28/28/28
f 30/30/30 29/29/29 31/31/31
f 31/31/31 29/29/29 32/32/32
f 34/34/34 33/33/33 35/35/35
f 35/35/35 33/33/33 36/36/36
f 38/38/38 37/37/37 39/39/39
f 39/39/39 37/37/37 40/40/40
f 42/42/42 41/41/41 43/43/43
f 43/43/43 41/41/41 44/44/44
f 46/46/46 45/45/45 47/47/47
f 47/47/47 45/45/45 48/48/48
f 50/50/50 49/49/49 51/51/51
f 51/51/51 49/49/49 52/52/52
f 54/54/54 53/53/53 55/55/55
f 55/55/55 53/53/53 56/56/56
f 58/58/58 57/57/57 59/59/59
f 59/59/59 57/57/57 60/60/60
f 62/62/62 61/61/61 63/63/63
f 63/63/63 61/61/61 64/64/64
f 66/66/66 65/65/65 67/67/67
f 67/67/67 65/65/65 68/68/68
f 70/70/70 69/69/69 71/71/71
f 71/71/71 69/69/69 72/72/72
f 74/74/74 73/73/73 75/75/75
f 75/75/75 73/73/73 76/76/76
f 78/78/78 77/77/77 79/79/79
f 79/79/79 77/77/77 80/80/80
f 82/82/82 81/81/81 83/83/83
f 83/83/83 81/81/81 84/84/84
f 86/86/86 85/85/85 87/87/87
f 87/87/87 85/85/85 88/88/88
f 90/90/90 89/89/89 91/91/91
f 91/91/91 89/89/89 92/92/92
f 94/94/94 93/93/93 95/95/95
f 95/95/95 93/93/93 96/96/96
f 98/98/98 97/97/97 99/99/99
f 99/99/99 97/97/97 100/100/100
f 102/102/102 101/101/101 103/103/103
f 103/103/103 101/101/101 104/104/104
f 106/106/106 105/105/105 107/107/107
f 107/107/107 105/105/105 108/108/108
f 110/110/110 109/109/109 111/111/111
f 111/111/111 109/109/109 112/112/112
f 114/114/114 113/113/113 115/115/115
f 115/115/115 113/113/113 116/116/116
f 118/118/118 117/117/117 119/119/119
f 119/119/119 117/117/117 120/120/120
f 122/122/122 121/121/121 123/123/123
f 123/123/123 121/121/121 124/124/124
f 126/126/126 125/125/125 127/127/127
f 127/127/127 125/125/125 128/128/128
f 130/130/130 129/129/129 131/131/131
f 131/131/131 129/129/129 132/132/132
f 134/134/134 133/133/133 135/135/135
f 135/135/135 133/133/133 136/136/136
f 138/138/138 137/137/137 139/139/139
f 139/139/139 137/137/137 140/140/140
f 142/142/142 141/141/141 143/143/143
f 143/143/143 141/141/141 144/144/144
