mtllib Env_Planter.mtl
g Env_Planter
v 12.37955 0 1.304404
v 12.37955 0.4897714 1.304404
v 15.28046 0.4897714 1.304404
v 15.28046 0 1.304404
v 12.66776 0.4897714 1.011466
v 12.66776 0.4897714 -6.211481
v 14.99225 0.4897714 -6.211481
v 14.99225 0.4897714 1.011466
v 12.37955 0.4897714 -6.504404
v 12.37955 0 -6.504404
v 15.28046 0 -6.504404
v 15.28046 0.4897714 -6.504404
v 15.28046 0 1.304404
v 15.28046 0.4897714 1.304404
v 15.28046 0.4897714 -6.504404
v 15.28046 0 -6.504404
v 12.37955 0 -6.504404
v 12.37955 0.4897714 -6.504404
v 12.37955 0.4897714 1.304404
v 12.37955 0 1.304404
v 12.37955 0.4897714 1.304404
v 12.66776 0.4897714 1.011466
v 14.99225 0.4897714 1.011466
v 15.28046 0.4897714 1.304404
v 14.99225 0.4897714 -6.211481
v 15.28046 0.4897714 -6.504404
v 12.66776 0.4897714 -6.211481
v 12.37955 0.4897714 -6.504404
v 13.12529 1.376953 -5.681512
v 14.53656 1.376953 -5.681512
v 14.53656 1.376953 0.5112519
v 13.12529 1.376953 0.5112519
v 13.12529 0.4897714 -5.681512
v 13.12529 1.376953 -5.681512
v 13.12529 1.376953 0.5112519
v 13.12529 0.4897714 0.5112519
v 13.12529 0.4897714 0.5112519
v 13.12529 1.376953 0.5112519
v 14.53656 1.376953 0.5112519
v 14.53656 0.4897714 0.5112519
v 14.53656 0.4897714 0.5112519
v 14.53656 1.376953 0.5112519
v 14.53656 1.376953 -5.681512
v 14.53656 0.4897714 -5.681512
v 14.53656 0.4897714 -5.681512
v 14.53656 1.376953 -5.681512
v 13.12529 1.376953 -5.681512
v 13.12529 0.4897714 -5.681512

vn 0 0 1
vn 0 0 1
vn 0 0 1
vn 0 0 1
vn 0 1 0
vn 0 1 0
vn 0 1 0
vn 0 1 0
vn 0 0 -1
vn 0 0 -1
vn 0 0 -1
vn 0 0 -1
vn 1 0 0
vn 1 0 0
vn 1 0 0
vn 1 0 0
vn -1 0 0
vn -1 0 0
vn -1 0 0
vn -1 0 0
vn 0 1 0
vn 0 1 0
vn 0 1 0
vn 0 1 0
vn 0 1 0
vn 0 1 0
vn 0 1 0
vn 0 1 0
vn 0 1 0
vn 0 1 0
vn 0 1 0
vn 0 1 0
vn -1 0 0
vn -1 0 0
vn -1 0 0
vn -1 0 0
vn 0 0 1
vn 0 0 1
vn 0 0 1
vn 0 0 1
vn 1 0 0
vn 1 0 0
vn 1 0 0
vn 1 0 0
vn 0 0 -1
vn 0 0 -1
vn 0 0 -1
vn 0 0 -1

vt 0.1696726 0.4805535
vt 0.1696726 0.4805536
vt 0.1696726 0.4805536
vt 0.1696726 0.4805535
vt 0.1912813 0.3989208
vt 0.1912813 0.3989208
vt 0.1912813 0.3989208
vt 0.1912813 0.3989208
vt 0.1696726 0.4805535
vt 0.1696726 0.4805535
vt 0.1696726 0.4805535
vt 0.1696726 0.4805535
vt 0.2344986 0.4781525
vt 0.2344986 0.4781526
vt 0.2344986 0.4781526
vt 0.2344986 0.4781525
vt 0.2344986 0.4781525
vt 0.2344986 0.4781526
vt 0.2344986 0.4781526
vt 0.2344986 0.4781525
vt 0.2905211 0.4837549
vt 0.2905211 0.4837549
vt 0.2905211 0.4837549
vt 0.2905211 0.4837549
vt 0.2905211 0.4837548
vt 0.2905211 0.4837548
vt 0.2905211 0.4837548
vt 0.2905211 0.4837548
vt 0.4577852 0.1563928
vt 0.4577852 0.1563928
vt 0.4577852 0.1563928
vt 0.4577852 0.1563928
vt 0.3263184 0.1555045
vt 0.3263184 0.1555045
vt 0.3263184 0.1555045
vt 0.3263184 0.1555045
vt 0.2366012 0.1555045
vt 0.2366012 0.1555045
vt 0.2366012 0.1555045
vt 0.2366012 0.1555045
vt 0.3263184 0.1555045
vt 0.3263184 0.1555045
vt 0.3263184 0.1555045
vt 0.3263184 0.1555045
vt 0.2366012 0.1555045
vt 0.2366012 0.1555045
vt 0.2366012 0.1555045
vt 0.2366012 0.1555045

g g_01
usemtl SimpleTown
f 2/2/2 1/1/1 3/3/3
f 3/3/3 1/1/1 4/4/4
f 6/6/6 5/5/5 7/7/7
f 7/7/7 5/5/5 8/8/8
f 10/10/10 9/9/9 11/11/11
f 11/11/11 9/9/9 12/12/12
f 14/14/14 13/13/13 15/15/15
f 15/15/15 13/13/13 16/16/16
f 18/18/18 17/17/17 19/19/19
f 19/19/19 17/17/17 20/20/20
f 22/22/22 21/21/21 23/23/23
f 23/23/23 21/21/21 24/24/24
f 23/23/23 24/24/24 25/25/25
f 25/25/25 24/24/24 26/26/26
f 25/25/25 26/26/26 27/27/27
f 27/27/27 26/26/26 28/28/28
f 27/27/27 28/28/28 22/22/22
f 22/22/22 28/28/28 21/21/21
f 30/30/30 29/29/29 31/31/31
f 31/31/31 29/29/29 32/32/32
f 34/34/34 33/33/33 35/35/35
f 35/35/35 33/33/33 36/36/36
f 38/38/38 37/37/37 39/39/39
f 39/39/39 37/37/37 40/40/40
f 42/42/42 41/41/41 43/43/43
f 43/43/43 41/41/41 44/44/44
f 46/46/46 45/45/45 47/47/47
f 47/47/47 45/45/45 48/48/48
