mtllib tree_small_mesh.mtl
g tree_small_mesh
v -6.113801 0.1375638 -14.86356
v -6.113801 2.924364 -14.86356
v -5.75744 2.924364 -14.86356
v -5.75744 0.1375638 -14.86356
v -6.113801 2.924364 -15.23997
v -6.113801 0.1375638 -15.23997
v -5.75744 0.1375638 -15.23997
v -5.75744 2.924364 -15.23997
v -5.75744 0.1375638 -14.86356
v -5.75744 2.924364 -14.86356
v -5.75744 2.924364 -15.23997
v -5.75744 0.1375638 -15.23997
v -6.113801 0.1375638 -15.23997
v -6.113801 2.924364 -15.23997
v -6.113801 2.924364 -14.86356
v -6.113801 0.1375638 -14.86356
v -6.295587 -0.0005061775 -14.67154
v -6.295587 0.2451058 -14.67154
v -5.575655 0.2451058 -14.67154
v -5.575655 -0.0005061775 -14.67154
v -6.295587 0.2451058 -15.43199
v -6.295587 -0.0005061775 -15.43199
v -5.575655 -0.0005061775 -15.43199
v -5.575655 0.2451058 -15.43199
v -5.575655 -0.0005061775 -14.67154
v -5.575655 0.2451058 -14.67154
v -5.575655 0.2451058 -15.43199
v -5.575655 -0.0005061775 -15.43199
v -6.295587 -0.0005061775 -15.43199
v -6.295587 0.2451058 -15.43199
v -6.295587 0.2451058 -14.67154
v -6.295587 -0.0005061775 -14.67154
v -5.575655 0.2451058 -14.67154
v -6.295587 0.2451058 -14.67154
v -6.295587 0.2451058 -15.43199
v -5.575655 0.2451058 -15.43199
v -6.915693 4.455385 -14.01939
v -6.915693 4.455385 -16.08061
v -4.964311 4.455385 -16.08061
v -4.964311 4.455385 -14.01939
v -4.964311 2.486078 -16.08061
v -6.915693 2.486078 -16.08061
v -6.915693 2.486078 -14.01939
v -4.964311 2.486078 -14.01939
v -6.915693 2.486078 -14.01939
v -6.915693 4.455385 -14.01939
v -4.964311 4.455385 -14.01939
v -4.964311 2.486078 -14.01939
v -4.964311 2.486078 -14.01939
v -4.964311 4.455385 -14.01939
v -4.964311 4.455385 -16.08061
v -4.964311 2.486078 -16.08061
v -4.964311 2.486078 -16.08061
v -4.964311 4.455385 -16.08061
v -6.915693 4.455385 -16.08061
v -6.915693 2.486078 -16.08061
v -6.915693 2.486078 -16.08061
v -6.915693 4.455385 -16.08061
v -6.915693 4.455385 -14.01939
v -6.915693 2.486078 -14.01939

vn 0 0 1
vn 0 0 1
vn 0 0 1
vn 0 0 1
vn 0 0 -1
vn 0 0 -1
vn 0 0 -1
vn 0 0 -1
vn 1 0 0
vn 1 0 0
vn 1 0 0
vn 1 0 0
vn -1 0 0
vn -1 0 0
vn -1 0 0
vn -1 0 0
vn 0 0 1
vn 0 0 1
vn 0 0 1
vn 0 0 1
vn 0 0 -1
vn 0 0 -1
vn 0 0 -1
vn 0 0 -1
vn 1 0 0
vn 1 0 0
vn 1 0 0
vn 1 0 0
vn -1 0 0
vn -1 0 0
vn -1 0 0
vn -1 0 0
vn 0 1 0
vn 0 1 0
vn 0 1 0
vn 0 1 0
vn 0 1 0
vn 0 1 0
vn 0 1 0
vn 0 1 0
vn 0 -1 0
vn 0 -1 0
vn 0 -1 0
vn 0 -1 0
vn 0 0 1
vn 0 0 1
vn 0 0 1
vn 0 0 1
vn 1 0 0
vn 1 0 0
vn 1 0 0
vn 1 0 0
vn 0 0 -1
vn 0 0 -1
vn 0 0 -1
vn 0 0 -1
vn -1 0 0
vn -1 0 0
vn -1 0 0
vn -1 0 0

vt 0.4301233 0.217021
vt 0.4367034 0.2170209
vt 0.4367035 0.2108663
vt 0.4301232 0.2108664
vt 0.4127442 0.179165
vt 0.419324 0.1791649
vt 0.4193242 0.1730103
vt 0.412744 0.1730103
vt 0.1978455 0.1948041
vt 0.2044258 0.194804
vt 0.2044256 0.1883029
vt 0.1978455 0.1883028
vt 0.1977432 0.1821853
vt 0.2043233 0.1821853
vt 0.2043232 0.1756843
vt 0.1977431 0.1756843
vt 0.7026566 0.1886052
vt 0.7092367 0.1886051
vt 0.7092369 0.1824505
vt 0.7026565 0.1824506
vt 0.6852775 0.1507492
vt 0.6918573 0.1507491
vt 0.6918575 0.1445945
vt 0.6852773 0.1445945
vt 0.4019225 0.1134316
vt 0.4085029 0.1134315
vt 0.4085026 0.1069304
vt 0.4019225 0.1069303
vt 0.4018202 0.1008128
vt 0.4084004 0.1008127
vt 0.4084002 0.09431179
vt 0.4018201 0.09431179
vt 0.1591072 0.07438137
vt 0.1591072 0.14985
vt 0.2388235 0.14985
vt 0.2388235 0.07438137
vt 0.05627855 0.7742525
vt 0.05627855 0.8992069
vt 0.1745744 0.8992069
vt 0.1745744 0.7742525
vt 0.6980504 0.4088993
vt 0.6572138 0.4088993
vt 0.6572138 0.6143253
vt 0.6980504 0.6143253
vt 0.2576457 0.4787385
vt 0.2576457 0.5191194
vt 0.2946793 0.5191194
vt 0.2946793 0.4787385
vt 0.8081037 0.8078339
vt 0.8081037 0.8423845
vt 0.8415738 0.8423845
vt 0.8415738 0.8078339
vt 0.1449746 0.6093341
vt 0.1449746 0.5395544
vt 0.08097914 0.5395544
vt 0.08097914 0.6093341
vt 0.4596081 0.4246562
vt 0.4596081 0.5158015
vt 0.5479033 0.5158015
vt 0.5479033 0.4246562

g g_01
usemtl Nature
f 2/2/2 1/1/1 3/3/3
f 3/3/3 1/1/1 4/4/4
f 6/6/6 5/5/5 7/7/7
f 7/7/7 5/5/5 8/8/8
f 10/10/10 9/9/9 11/11/11
f 11/11/11 9/9/9 12/12/12
f 14/14/14 13/13/13 15/15/15
f 15/15/15 13/13/13 16/16/16
f 18/18/18 17/17/17 19/19/19
f 19/19/19 17/17/17 20/20/20
f 22/22/22 21/21/21 23/23/23
f 23/23/23 21/21/21 24/24/24
f 26/26/26 25/25/25 27/27/27
f 27/27/27 25/25/25 28/28/28
f 30/30/30 29/29/29 31/31/31
f 31/31/31 29/29/29 32/32/32
f 34/34/34 33/33/33 35/35/35
f 35/35/35 33/33/33 36/36/36
f 38/38/38 37/37/37 39/39/39
f 39/39/39 37/37/37 40/40/40
f 42/42/42 41/41/41 43/43/43
f 43/43/43 41/41/41 44/44/44
f 46/46/46 45/45/45 47/47/47
f 47/47/47 45/45/45 48/48/48
f 50/50/50 49/49/49 51/51/51
f 51/51/51 49/49/49 52/52/52
f 54/54/54 53/53/53 55/55/55
f 55/55/55 53/53/53 56/56/56
f 58/58/58 57/57/57 59/59/59
f 59/59/59 57/57/57 60/60/60
